# xmcd
#
# Track frame offsets: 
#        150
#        19943
#        39887
#        58769
#        80092
#        97970
#        120339
#        147055
#        169303
#        189320
#        206182
#
# Disc length: 2993 seconds
#
# Revision: 1
# Processed by: cddbd v1.5.2PL0 Copyright (c) Steve Scherf et al.
# Submitted via: ExactAudioCopy v1.0b3
#
DISCID=900baf0b
DTITLE=Victor Hugo - Salsa Power
DYEAR=2006
DGENRE=Salsa
TTITLE0=La Cruz de Palo
TTITLE1=Te Llamo
TTITLE2=Ríndete
TTITLE3=La propuesta
TTITLE4=Siempre los mismo
TTITLE5=La despedida
TTITLE6=La lluvia
TTITLE7=Hay que cantar
TTITLE8=Latinoamérica - Canto y lloro
TTITLE9=Tarde no es
TTITLE10=Sí o no
EXTD=YEAR: 2006
EXTT0=
EXTT1=
EXTT2=
EXTT3=
EXTT4=
EXTT5=
EXTT6=
EXTT7=
EXTT8=
EXTT9=
EXTT10=
PLAYORDER=
